<svg id="Layer_1" data-name="Layer 1" xmlns="http://www.w3.org/2000/svg" viewBox="0 0 320 240"><defs><style>.cls-1{fill:#ed1651;}</style></defs><title>bummer</title><path class="cls-1" d="M249.7053,96.9636c-2.2816-12.1343-4.25-25.3848-9.4162-36.6775-8.1575-17.8312-27.0254-26.6672-44.6658-32.869a5.2141,5.2141,0,0,0-4.6384-4.2526c-22.54-2.3623-45.7481-3.2191-67.7314,3.252-19.4893,5.7371-36.0916,17.1322-47.8306,33.7673-23.3787,33.129-26.1223,80.4453-.361,113.017,24.65,31.1671,68.8073,35.8488,105.8546,33.2759,19.1206-1.3279,38.6762-6.3839,52.2451-20.7767,12.7247-13.4974,18.7265-32.0728,19.7991-50.3148C253.7174,122.5121,252.0807,109.597,249.7053,96.9636Zm-17.51,73.7458c-9.6109,15.2106-25.61,22.4876-42.9539,24.9374a183.8392,183.8392,0,0,1-52.0712-.6611c-16.7908-2.5359-33.77-8.1191-46.5533-19.7164C62.5354,149.7935,60.69,107.29,77.9224,75.1842,87.8486,56.69,103.48,43.2516,123.5106,36.8031c20.4011-6.5679,41.9985-6.0937,63.11-4.0759A4.84,4.84,0,0,0,189.838,35.98c14.4048,4.8791,30.8818,11.2085,39.345,24.7211,5.2574,8.3942,6.6835,19.03,8.7579,28.5565a215.191,215.191,0,0,1,4.89,30.8575C244.0408,137.5994,241.7158,155.642,232.1954,170.7094Z"/><path class="cls-1" d="M153.2227,75.5922A19.6842,19.6842,0,0,1,136.8569,88.21c-4.9908.489-9.0645-.7124-9.6577-6.1893a31.2994,31.2994,0,0,1,2.67-15.2172c2.5067-5.8511-6.1053-10.9515-8.6347-5.0472-5.7621,13.45-7.66,34.6422,11.5972,36.3958,13.3327,1.2142,25.6169-7.57,30.0333-19.902C165.0391,72.181,155.38,69.5678,153.2227,75.5922Z"/><path class="cls-1" d="M210.0037,99.6482c-2.3732,8.66-12.5126,14.7574-21.345,14.35-6.0609-.28-6.0819-4.3227-4.9928-9.4866,1.3342-6.326,2.8711-12.6165,4.3057-18.92,1.4259-6.2657-8.2131-8.9409-9.6428-2.6584-2.9395,12.9169-13.0084,38.1014,7.78,40.8322,14.0058,1.84,29.7814-7.75,33.538-21.4584C221.35,96.0914,211.7051,93.4393,210.0037,99.6482Z"/><path class="cls-1" d="M170.3484,147.7718c-2.093-6.9352-4.868-14.3843-9.6035-19.98-4.939-5.8364-12.0621-7.9907-19.3937-8.94a91.4185,91.4185,0,0,0-24.492-.2155c-16.2819,2.2888-31.6863,11.8438-36.5767,28.2373-1.0922,3.6612,1.8489,6.0793,4.81,6.1617a5.26,5.26,0,0,0,1.1747.83c15.6447,8.17,31.4168,16.2564,48.3773,21.3624,8.2643,2.488,16.6887,4.3878,25.1152,6.2325,3.2062.7019,6.2664,1.597,9.226-.2565,3.0974-1.94,3.6445-5.486,4.02-8.8389A61.84,61.84,0,0,0,170.3484,147.7718ZM157,170.6182c-3.3077-.7444-6.61-1.5127-9.8982-2.3415a190.2871,190.2871,0,0,1-18.6177-5.6145c-12.7947-4.6586-24.8828-11.0145-36.93-17.3066,7.8561-16.23,29.4221-18.5425,45.7681-16.9621,4.2988.4156,9.0868.9175,12.83,3.2643,3.8849,2.4359,6.0034,6.87,7.7323,10.9507a73.4256,73.4256,0,0,1,4.5844,14.8929,49.3,49.3,0,0,1,.8618,8.5574,29.4684,29.4684,0,0,1-.1262,6.0992C161.0967,171.8187,158.8747,171.04,157,170.6182Z"/></svg>