<svg id="Layer_1" data-name="Layer 1" xmlns="http://www.w3.org/2000/svg" viewBox="0 0 320 240"><defs><style>.cls-1{fill:#30b259;}</style></defs><title>happy</title><path class="cls-1" d="M249.9491,65.2662A82.9359,82.9359,0,0,0,204.532,18.4724c-20.5042-8.6821-43.51-10.0784-65.1826-5.45-13.3384,1.055-26.4595,4.75-37.7,12.0071C83.7659,36.5739,74.2387,55.7374,69.8219,76.03a242.0771,242.0771,0,0,0-4.3829,33.4045c-.97,12.9557-1.1431,26.0168,1.2389,38.84,4.0692,21.9074,16.5852,40.4559,36.7,50.4966,20.5851,10.2755,44.7706,12.9488,67.4208,14.55,12.4761.8821,25.5657,1.6938,37.9863-.166,12.0031-1.7972,20.01-8.82,27.5446-17.8523,7.121-8.5367,13.6954-17.5044,17.7844-27.92,4.391-11.1849,4.6489-23.42,4.7494-35.2764C259.0529,109.7364,258.2467,86.3394,249.9491,65.2662Zm-11.0267,109.983c-5.2556,8.2942-12.0756,17.9894-20.1974,23.719-8.7586,6.1788-20.9623,5.228-31.1519,5.0788-21.7075-.3179-44.3565-2.2126-65.231-8.5193-19.3463-5.845-35.4733-17.4553-42.5549-36.9968C72.335,137.9666,74.344,114.9384,76.9617,93.64c2.5533-20.7744,8.32-43.1273,25.3542-56.8373,16.609-13.3674,39.4669-15.8154,59.9464-13.1531a3.8837,3.8837,0,0,0,4.618-3.1663c26.7859.8905,53.3381,12.2059,67.642,35.8469,10.47,17.3044,13.3586,37.9381,14.1281,57.8116C249.4581,135.004,250.5049,156.97,238.9224,175.2491Z"/><path class="cls-1" d="M155.299,67.5148c-4.1784-7.024-11.0115-11.4665-19.2449-11.718-7.9169-.2418-16.3714,2.25-22.3019,7.6052-6.38,5.7617-9.2791,14.2634-11.8273,22.2183-1.9678,6.1431,7.6841,8.7732,9.6428,2.6584,1.73-5.4012,3.4685-11.2151,7.1609-15.6558,3.8789-4.665,9.8637-6.6411,15.7864-6.8177,14.7389-.44,15.7046,16.8323,15.8055,27.6887.06,6.4314,10.06,6.4472,10,0C160.2384,84.66,159.9443,75.3238,155.299,67.5148Z"/><path class="cls-1" d="M220.09,73.3731a24.3022,24.3022,0,0,0-38.8544.1753c-4.95,6.5756-6.06,14.8088-6.7454,22.7828-.5508,6.4111,9.4524,6.3743,10,0,.8489-9.8818,3.8362-22.4316,16.133-22.5722,13.2482-.1514,15.3495,13.595,15.6076,23.833.1619,6.4234,10.1625,6.4481,10,0C226.0175,89.1441,225.4445,80.32,220.09,73.3731Z"/><path class="cls-1" d="M218.8264,141.0986c-2.38-4.2586-6.9979-4.2914-11.295-4.5052l-20.9211-1.04-82.33-4.0944a5.6484,5.6484,0,0,0-.6619-.4622,7.9487,7.9487,0,0,0-10.898,2.5313c-2.7587,4.2669-1.6172,11.1468-1.2521,15.9163.774,10.11,3.7665,19.3917,10.9825,26.7538,15.5316,15.8462,40.2047,17.94,61.1135,16.9074,10.63-.5249,21.7971-1.0341,32.2025-3.4291,9.2541-2.13,17.51-7.1257,21.3348-16.1371,2.097-4.94,2.837-10.3308,3.19-15.6545C220.6241,152.8787,221.39,145.6858,218.8264,141.0986Zm-15.2019,34.4053c-5.6264,4.5835-13.81,5.3589-20.7535,6.0505-17.9354,1.7867-36.6931,3.6379-54.2386-1.5994-7.91-2.3611-15.8289-6.444-21.0728-13a27.5984,27.5984,0,0,1-5.3572-11.9022,53.26,53.26,0,0,1-.8816-8.2487c-.04-.8809-.0677-1.762-.0909-2.6436-.0461-1.7483.0865-2.4138-.1405-2.8612l56.63,2.8163,29.8872,1.4863,13.9473.6937a56.5177,56.5177,0,0,0,6.9737.3468c.4421-.0347,1.5029.3306,1.79.1832a25.462,25.462,0,0,1,.0693,3.3033C210.7381,158.36,210.6318,169.7954,203.6245,175.5039Z"/></svg>