<?xml version="1.0" encoding="UTF-8" standalone="no"?>
<svg
   xmlns:dc="http://purl.org/dc/elements/1.1/"
   xmlns:cc="http://creativecommons.org/ns#"
   xmlns:rdf="http://www.w3.org/1999/02/22-rdf-syntax-ns#"
   xmlns:svg="http://www.w3.org/2000/svg"
   xmlns="http://www.w3.org/2000/svg"
   id="svg8"
   version="1.1"
   viewBox="0 0 210 297"
   height="297mm"
   width="210mm">
  <defs
     id="defs2" />
  <metadata
     id="metadata5">
    <rdf:RDF>
      <cc:Work
         rdf:about="">
        <dc:format>image/svg+xml</dc:format>
        <dc:type
           rdf:resource="http://purl.org/dc/dcmitype/StillImage" />
        <dc:title></dc:title>
      </cc:Work>
    </rdf:RDF>
  </metadata>
  <g
     id="layer1">
    <path
       id="path10"
       d="m 48.25696,114.80881 c -0.98476,2.26517 -0.847376,4.98715 0.360451,7.14166 1.207828,2.1545 3.458276,3.69189 5.904487,4.03364 1.377207,0.1924 2.806148,0.0175 4.089717,-0.5174 1.283568,-0.53495 2.411766,-1.42868 3.24546,-2.54164 0.833694,-1.11296 1.367784,-2.43322 1.648724,-3.79513 0.28094,-1.3619 0.31184,-2.76132 0.328846,-4.1518 l 0.190521,-15.577695 m 38.605574,44.362545 c -0.79326,1.23359 -1.19351,2.71566 -1.12985,4.18091 0.0637,1.46525 0.59079,2.90607 1.48317,4.06997 0.89238,1.16391 2.14418,2.04528 3.53589,2.50804 1.3917,0.46277 2.91515,0.50715 4.33918,0.15623 1.42403,-0.35092 2.74341,-1.09137 3.82056,-2.08674 1.07714,-0.99538 1.91233,-2.23901 2.49855,-3.58338 1.17245,-2.68876 1.30461,-5.69892 1.36883,-8.63148 l 0.50796,-23.19721 c 0.23545,2.20601 -0.39749,4.4931 -1.73358,6.2642 -1.33609,1.7711 -3.36143,3.00777 -5.54729,3.38719 -1.70184,0.2954 -3.48934,0.0778 -5.07063,-0.61718 -1.58129,-0.69502 -2.95026,-1.8648 -3.8834,-3.31834 -0.93314,-1.45354 -1.42684,-3.18523 -1.40048,-4.91232 0.0264,-1.72709 0.57267,-3.4429 1.54973,-4.86729 m 215.54775,-5.07968 -9.14342,27.09163 -12.6992,-24.89044 -8.46613,24.55179 m -8.80478,-9.65139 c -0.76763,1.71238 -2.03471,3.19731 -3.60501,4.22477 -1.57029,1.02747 -3.43834,1.59393 -5.31483,1.61163 -1.87648,0.0177 -3.7549,-0.51341 -5.34429,-1.51107 -1.5894,-0.99766 -2.88427,-2.45841 -3.68407,-4.15601 -1.35356,-2.87299 -1.20507,-6.40519 0.38485,-9.15444 1.58993,-2.74924 4.57739,-4.63963 7.74263,-4.89934 1.70146,-0.1396 3.43788,0.1717 4.98487,0.89368 1.547,0.72199 2.90089,1.85293 3.88673,3.2467 0.98583,1.39377 1.60126,3.04704 1.76677,4.74617 0.1655,1.69914 -0.11931,3.4401 -0.81765,4.99791 z m -25.73705,6.09562 v -24.38247 m -23.87449,23.8745 -0.84662,-35.0498 m -24.47374,38.12081 -18.67775,2.27486 m 36.03849,-19.2764 18.96559,-4.187 m -53.8446,34.54183 c -1.81981,-4.44114 -2.73945,-9.24895 -2.68717,-14.04819 0.0343,-3.14353 0.50706,-6.35826 2.01927,-9.11438 0.7561,-1.37806 1.7693,-2.62447 3.01901,-3.57787 1.2497,-0.95341 2.74003,-1.60696 4.3006,-1.79499 1.64451,-0.19814 3.33511,0.12542 4.8333,0.8319 1.49819,0.70647 2.80684,1.78642 3.86125,3.06388 2.10883,2.55491 3.17374,5.82258 3.7376,9.08706 0.86023,4.98038 0.64763,10.14332 -0.61918,15.03611 m -49.11209,-35.8879 23.19721,-2.70916 m -14.22311,-7.61952 2.87849,23.53585 m -40.12948,11.85259 17.94821,-12.6992 -15.40837,-8.9741 12.86853,-9.82072 m -52.49003,16.49807 c 0.931679,-2.49095 0.597796,-5.41941 -0.870688,-7.63672 -1.468483,-2.2173 -4.034487,-3.66746 -6.691522,-3.78167 -1.412742,-0.0607 -2.839546,0.23997 -4.107628,0.86566 -1.268081,0.6257 -2.374802,1.5751 -3.186138,2.73323 -0.811335,1.15813 -1.325598,2.52258 -1.480512,3.92811 -0.154913,1.40554 0.04984,2.84923 0.58948,4.15626 0.643728,1.55915 1.765721,2.91701 3.175554,3.84314 1.409833,0.92612 3.101598,1.41662 4.788171,1.38825 1.686573,-0.0284 3.360885,-0.57549 4.738775,-1.5485 1.377889,-0.97301 2.45358,-2.36784 3.044508,-3.94776 z"
       style="fill:none;fill-rule:evenodd;stroke:#000000;stroke-width:7.96500015;stroke-linecap:round;stroke-linejoin:round;stroke-miterlimit:4;stroke-dasharray:none;stroke-opacity:1" />
  </g>
</svg>
