<svg id="Layer_1" data-name="Layer 1" xmlns="http://www.w3.org/2000/svg" viewBox="0 0 211.01 50.43"><defs><style>.cls-1{fill:#231f20;}.cls-2,.cls-3{fill:#fff;}.cls-3{fill-rule:evenodd;}.cls-4{fill:none;stroke:#fff;stroke-linejoin:round;stroke-width:2.21px;}</style></defs><title>Joy-Station-mark-black</title><path class="cls-1" d="M30.13,66V64.88h7.54v.68c0,2.08,1.22,3.42,3.08,3.42s3-1.31,3-3.42V48.1h7.53V66c0,5.88-4.23,10-10.53,10S30.13,71.85,30.13,66Z" transform="translate(-30.13 -41.85)"/><path class="cls-1" d="M53.68,64.78c0-6.49,4.92-11.16,11.75-11.16s11.75,4.67,11.75,11.16S72.24,76,65.43,76,53.68,71.25,53.68,64.78Zm16.27,0a4.52,4.52,0,1,0-4.52,4.68A4.42,4.42,0,0,0,70,64.78Z" transform="translate(-30.13 -41.85)"/><path class="cls-1" d="M100.69,54.3l-8.79,20c-2.82,6.41-5.42,8.73-10.83,8.73H78.6V76.85h2c2.76,0,3.59-.71,4.57-3.32L76.5,54.3h7.84l4.45,11.55L92.93,54.3Z" transform="translate(-30.13 -41.85)"/><path class="cls-1" d="M102.69,66.49h7.72c0,1.94,1.49,2.88,3.2,2.88s3.06-.83,3.06-2.32c0-1.7-2.11-2.19-4.7-2.82-3.92-1-8.93-2.18-8.93-8.36,0-5.35,3.93-8.41,10.33-8.41s10.25,3.34,10.25,8.86h-7.51c0-1.71-1.28-2.52-2.83-2.52-1.33,0-2.61.58-2.61,1.85,0,1.54,2,2.05,4.6,2.69,4,1,9.23,2.37,9.23,8.57,0,5.93-4.56,9-10.87,9C107,75.92,102.69,72.41,102.69,66.49Z" transform="translate(-30.13 -41.85)"/><path class="cls-1" d="M140.64,68.94v6.32h-5c-4.63,0-7.45-2.83-7.45-7.49V59.86h-3.83V58.18l9.39-10h1.48V54.3h5.26v5.56h-5.08v6.67a2.23,2.23,0,0,0,2.43,2.41Z" transform="translate(-30.13 -41.85)"/><path class="cls-1" d="M165,54.28v21h-5.58l-.62-1.49a9.92,9.92,0,0,1-6.32,2.2c-6.41,0-11-4.68-11-11.19s4.58-11.11,11-11.11a10,10,0,0,1,6.4,2.25l.74-1.62Zm-6.86,10.5a4.7,4.7,0,1,0-4.69,4.77A4.61,4.61,0,0,0,158.1,64.78Z" transform="translate(-30.13 -41.85)"/><path class="cls-1" d="M182.71,68.94v6.32h-5c-4.63,0-7.45-2.83-7.45-7.49V59.86h-3.83V58.18l9.39-10h1.48V54.3h5.26v5.56h-5.08v6.67a2.23,2.23,0,0,0,2.43,2.41Z" transform="translate(-30.13 -41.85)"/><path class="cls-1" d="M185.67,54.3h7.22v21h-7.22Z" transform="translate(-30.13 -41.85)"/><path class="cls-1" d="M195,64.78c0-6.49,4.92-11.16,11.75-11.16s11.75,4.67,11.75,11.16S213.53,76,206.72,76,195,71.25,195,64.78Zm16.27,0a4.52,4.52,0,1,0-4.52,4.68A4.42,4.42,0,0,0,211.24,64.78Z" transform="translate(-30.13 -41.85)"/><path class="cls-1" d="M241.14,62.48V75.26h-7.21V63.48c0-2.44-.92-3.65-2.74-3.65-2.25,0-3.54,1.57-3.54,4.24V75.26h-7.22v-21h5.06l1,2.17a8.69,8.69,0,0,1,6.59-2.78C238,53.69,241.14,57.14,241.14,62.48Z" transform="translate(-30.13 -41.85)"/><path class="cls-1" d="M193.8,46.53a4.52,4.52,0,1,0-9,0,4.52,4.52,0,1,0,9,0Z" transform="translate(-30.13 -41.85)"/><path class="cls-1" d="M106.13,86.79c0-.67-.44-1-1.31-1a1.74,1.74,0,0,0-1.22.53l-.49-.58A2.56,2.56,0,0,1,105,85a2.14,2.14,0,0,1,1.6.5,1.83,1.83,0,0,1,.5,1.34v2.08a4.45,4.45,0,0,0,.08.95h-.89a2.71,2.71,0,0,1-.08-.69h0a1.79,1.79,0,0,1-1.6.81,1.87,1.87,0,0,1-1-.24,1.39,1.39,0,0,1-.7-1.23c0-.77.48-1.25,1.45-1.45a8.86,8.86,0,0,1,1.84-.16Zm-2.36,1.71c0,.49.33.73,1,.73a1.34,1.34,0,0,0,1-.38,1.36,1.36,0,0,0,.37-1v-.24h-.24C104.48,87.62,103.77,87.91,103.77,88.5Z" transform="translate(-30.13 -41.85)"/><path class="cls-1" d="M112.14,86.73v3.15h-1V82.8h2.27a3.32,3.32,0,0,1,1.82.45,1.54,1.54,0,0,1,.69,1.37,1.91,1.91,0,0,1-.46,1.39,2.16,2.16,0,0,1-1.24.62l2,3.25H115l-1.79-3.15Zm0-3.12v2.31h1.15c1.1,0,1.65-.39,1.65-1.16s-.52-1.15-1.59-1.15Z" transform="translate(-30.13 -41.85)"/><path class="cls-1" d="M118.45,83.42a.6.6,0,0,1-.63.61.58.58,0,0,1-.44-.17.6.6,0,0,1-.18-.43.58.58,0,0,1,.18-.43.59.59,0,0,1,.44-.18.61.61,0,0,1,.45.18A.52.52,0,0,1,118.45,83.42Zm-.16,1.72v4.74h-.94V85.14Z" transform="translate(-30.13 -41.85)"/><path class="cls-1" d="M122.19,85.82a1.39,1.39,0,0,0-1.13.49,1.89,1.89,0,0,0,0,2.39,1.42,1.42,0,0,0,1.14.5,1.36,1.36,0,0,0,1.13-.52l.63.57a2.21,2.21,0,0,1-1.76.76,2.55,2.55,0,0,1-1.84-.7,2.37,2.37,0,0,1-.72-1.79A2.42,2.42,0,0,1,122.18,85a2.77,2.77,0,0,1,1,.21,1.83,1.83,0,0,1,.77.59l-.68.54a1.09,1.09,0,0,0-.45-.39A1.57,1.57,0,0,0,122.19,85.82Z" transform="translate(-30.13 -41.85)"/><path class="cls-1" d="M126,85.87h0a1.33,1.33,0,0,1,.59-.61,1.8,1.8,0,0,1,.91-.25,1.62,1.62,0,0,1,1.32.54,2.09,2.09,0,0,1,.45,1.39v2.94h-.94V87.26c0-1-.36-1.44-1.07-1.44a1.13,1.13,0,0,0-.92.43,1.67,1.67,0,0,0-.36,1.12v2.51H125V82.32H126Z" transform="translate(-30.13 -41.85)"/><path class="cls-1" d="M131.82,82.32v7.56h-.93V82.32Z" transform="translate(-30.13 -41.85)"/><path class="cls-1" d="M136.45,86.79c0-.67-.44-1-1.31-1a1.74,1.74,0,0,0-1.22.53l-.49-.58a2.56,2.56,0,0,1,1.85-.72,2.14,2.14,0,0,1,1.6.5,1.83,1.83,0,0,1,.51,1.34v2.08a4.59,4.59,0,0,0,.07.95h-.89a2.71,2.71,0,0,1-.08-.69h0a1.79,1.79,0,0,1-1.6.81,1.87,1.87,0,0,1-1-.24,1.39,1.39,0,0,1-.7-1.23c0-.77.48-1.25,1.45-1.45a8.86,8.86,0,0,1,1.84-.16ZM134.1,88.5c0,.49.32.73,1,.73a1.33,1.33,0,0,0,1-.38,1.36,1.36,0,0,0,.37-1v-.24h-.23C134.8,87.62,134.1,87.91,134.1,88.5Z" transform="translate(-30.13 -41.85)"/><path class="cls-1" d="M139.86,85.94h0a1.56,1.56,0,0,1,.61-.67,1.81,1.81,0,0,1,.93-.26,1.62,1.62,0,0,1,1.32.54,2.09,2.09,0,0,1,.45,1.39v2.94h-.94V87.26q0-1.44-1.08-1.44a1.14,1.14,0,0,0-.92.43,1.67,1.67,0,0,0-.35,1.12v2.51H139V86.16a9.7,9.7,0,0,0,0-1h.89C139.85,85.46,139.86,85.73,139.86,85.94Z" transform="translate(-30.13 -41.85)"/><path class="cls-1" d="M145.2,85.72a2.24,2.24,0,0,1,1.72-.71,2,2,0,0,1,1.68.83h0V82.32h1v7.56h-.94v-.77h0a1.79,1.79,0,0,1-.73.66,2.06,2.06,0,0,1-1,.24,2.24,2.24,0,0,1-1.73-.72,2.55,2.55,0,0,1-.66-1.79A2.5,2.5,0,0,1,145.2,85.72Zm.32,1.76a1.77,1.77,0,0,0,.41,1.22,1.41,1.41,0,0,0,1.13.5,1.51,1.51,0,0,0,1.17-.5,1.84,1.84,0,0,0,0-2.41,1.49,1.49,0,0,0-1.17-.51,1.38,1.38,0,0,0-1.13.5A1.74,1.74,0,0,0,145.52,87.48Z" transform="translate(-30.13 -41.85)"/><path class="cls-1" d="M154.74,82.8V89h3.16v.87h-4.15V82.8Z" transform="translate(-30.13 -41.85)"/><path class="cls-1" d="M160.08,83.42a.6.6,0,0,1-.63.61.58.58,0,0,1-.44-.17.6.6,0,0,1-.18-.43A.58.58,0,0,1,159,83a.59.59,0,0,1,.44-.18.61.61,0,0,1,.45.18A.52.52,0,0,1,160.08,83.42Zm-.16,1.72v4.74H159V85.14Z" transform="translate(-30.13 -41.85)"/><path class="cls-1" d="M164.26,85a2.23,2.23,0,0,1,1.74.7,2.52,2.52,0,0,1,.66,1.77,2.6,2.6,0,0,1-.66,1.8,2.29,2.29,0,0,1-1.74.73,2,2,0,0,1-1-.24,1.89,1.89,0,0,1-.74-.66h0v.77h-.94V82.32h1v3.52h0A1.91,1.91,0,0,1,164.26,85Zm1.41,2.47a1.79,1.79,0,0,0-.42-1.2,1.38,1.38,0,0,0-1.13-.5,1.49,1.49,0,0,0-1.17.51,1.84,1.84,0,0,0,0,2.41,1.51,1.51,0,0,0,1.17.5,1.41,1.41,0,0,0,1.13-.5A1.83,1.83,0,0,0,165.67,87.48Z" transform="translate(-30.13 -41.85)"/><path class="cls-1" d="M168,86.16a9.7,9.7,0,0,0,0-1h.89c0,.32,0,.59,0,.81h0a1.66,1.66,0,0,1,.59-.69,1.26,1.26,0,0,1,.74-.25,1.92,1.92,0,0,1,.49,0l0,.88a1.45,1.45,0,0,0-.43-.05,1.16,1.16,0,0,0-1,.44,1.8,1.8,0,0,0-.35,1.07v2.49H168Z" transform="translate(-30.13 -41.85)"/><path class="cls-1" d="M174.71,86.79c0-.67-.44-1-1.31-1a1.75,1.75,0,0,0-1.22.53l-.49-.58a2.57,2.57,0,0,1,1.85-.72,2.16,2.16,0,0,1,1.61.5,1.87,1.87,0,0,1,.5,1.34v2.08a4.59,4.59,0,0,0,.07.95h-.88a2.72,2.72,0,0,1-.09-.69h0a1.78,1.78,0,0,1-1.6.81,1.87,1.87,0,0,1-1-.24,1.39,1.39,0,0,1-.7-1.23c0-.77.49-1.25,1.46-1.45a8.7,8.7,0,0,1,1.83-.16Zm-2.35,1.71c0,.49.32.73,1,.73a1.28,1.28,0,0,0,1.38-1.37v-.24h-.23C173.07,87.62,172.36,87.91,172.36,88.5Z" transform="translate(-30.13 -41.85)"/><path class="cls-1" d="M177.24,86.16a9.7,9.7,0,0,0,0-1h.89c0,.32,0,.59,0,.81h0a1.59,1.59,0,0,1,.59-.69,1.24,1.24,0,0,1,.74-.25,2,2,0,0,1,.49,0l0,.88a1.49,1.49,0,0,0-.43-.05,1.13,1.13,0,0,0-1,.44,1.68,1.68,0,0,0-.35,1.07v2.49h-.94Z" transform="translate(-30.13 -41.85)"/><path class="cls-1" d="M181.52,91.47c.35,0,.62-.27.82-.79l.3-.8-2-4.74h1l1.47,3.72h0l1.31-3.72h1L183.16,91c-.33.85-.82,1.28-1.48,1.28a3.85,3.85,0,0,1-.78-.07l.09-.82A1.89,1.89,0,0,0,181.52,91.47Z" transform="translate(-30.13 -41.85)"/><path class="cls-1" d="M191.08,82.8c1.68,0,2.52.65,2.52,2a1.7,1.7,0,0,1-.7,1.49,3.18,3.18,0,0,1-1.87.49h-1.12v3.14h-1V82.8Zm-1.17.81v2.32H191q1.65,0,1.65-1.17c0-.77-.54-1.15-1.63-1.15Z" transform="translate(-30.13 -41.85)"/><path class="cls-1" d="M194.85,86.16a9.7,9.7,0,0,0,0-1h.89c0,.32,0,.59,0,.81h0a1.59,1.59,0,0,1,.59-.69,1.24,1.24,0,0,1,.74-.25,2,2,0,0,1,.49,0l0,.88a1.49,1.49,0,0,0-.43-.05,1.13,1.13,0,0,0-1,.44,1.74,1.74,0,0,0-.35,1.07v2.49h-.94Z" transform="translate(-30.13 -41.85)"/><path class="cls-1" d="M203.36,87.5a2.35,2.35,0,0,1-.74,1.8,2.54,2.54,0,0,1-1.83.71,2.5,2.5,0,0,1-1.82-.72,2.43,2.43,0,0,1-.74-1.81A2.37,2.37,0,0,1,199,85.7a2.58,2.58,0,0,1,1.84-.69,2.54,2.54,0,0,1,1.84.7A2.38,2.38,0,0,1,203.36,87.5Zm-1,0a1.85,1.85,0,0,0-.43-1.2,1.56,1.56,0,0,0-2.29,0,1.85,1.85,0,0,0-.43,1.2,1.89,1.89,0,0,0,.43,1.22,1.56,1.56,0,0,0,2.29,0A1.89,1.89,0,0,0,202.37,87.48Z" transform="translate(-30.13 -41.85)"/><path class="cls-1" d="M204.15,91.47c.37,0,.56-.34.55-1V85.14h.94v5.35c0,1.19-.51,1.79-1.54,1.79a2.78,2.78,0,0,1-.54-.06l.1-.8A2.38,2.38,0,0,0,204.15,91.47Zm1.65-8a.66.66,0,0,1-.19.44.58.58,0,0,1-.44.17.6.6,0,0,1-.44-.17.65.65,0,0,1-.19-.43.63.63,0,0,1,.19-.43.6.6,0,0,1,.44-.18.59.59,0,0,1,.44.18A.56.56,0,0,1,205.8,83.42Z" transform="translate(-30.13 -41.85)"/><path class="cls-1" d="M211.71,87.47a2.82,2.82,0,0,1,0,.32h-3.76a1.4,1.4,0,0,0,.47,1,1.68,1.68,0,0,0,1.22.42,1.44,1.44,0,0,0,1.24-.73l.65.54a2.34,2.34,0,0,1-1.93,1,2.55,2.55,0,0,1-1.89-.69,2.4,2.4,0,0,1-.7-1.79,2.47,2.47,0,0,1,.7-1.81,2.34,2.34,0,0,1,1.74-.71,2.16,2.16,0,0,1,1.66.67A2.42,2.42,0,0,1,211.71,87.47Zm-2.26-1.69a1.45,1.45,0,0,0-1,.38,1.4,1.4,0,0,0-.47.93h2.83a1.39,1.39,0,0,0-.36-1A1.2,1.2,0,0,0,209.45,85.78Z" transform="translate(-30.13 -41.85)"/><path class="cls-1" d="M215.34,85.82a1.39,1.39,0,0,0-1.13.49,1.89,1.89,0,0,0,0,2.39,1.42,1.42,0,0,0,1.14.5,1.36,1.36,0,0,0,1.13-.52l.63.57a2.21,2.21,0,0,1-1.76.76,2.55,2.55,0,0,1-1.84-.7,2.37,2.37,0,0,1-.72-1.79A2.42,2.42,0,0,1,215.33,85a2.77,2.77,0,0,1,1,.21,1.83,1.83,0,0,1,.77.59l-.68.54A1.09,1.09,0,0,0,216,86,1.57,1.57,0,0,0,215.34,85.82Z" transform="translate(-30.13 -41.85)"/><path class="cls-1" d="M220,88.38c0,.54.21.81.64.81a1.26,1.26,0,0,0,.57-.12l0,.76a2.53,2.53,0,0,1-.8.13c-.92,0-1.38-.5-1.38-1.48V85.91h-.9v-.77h.9V83.78H220v1.36h1.25v.77H220Z" transform="translate(-30.13 -41.85)"/><path class="cls-1" d="M70,65.09a4.52,4.52,0,1,0-4.52,4.68A4.42,4.42,0,0,0,70,65.09Z" transform="translate(-30.13 -41.85)"/><circle class="cls-1" cx="35.3" cy="22.93" r="8.91"/><path class="cls-2" d="M62.59,61.78c0,1.47-.64,2.65-1.43,2.65s-1.43-1.18-1.43-2.65.64-2.65,1.43-2.65S62.59,60.32,62.59,61.78Z" transform="translate(-30.13 -41.85)"/><path class="cls-2" d="M71.13,61.64c0,1.5-.59,2.72-1.32,2.72s-1.32-1.22-1.32-2.72.59-2.72,1.32-2.72S71.13,60.14,71.13,61.64Z" transform="translate(-30.13 -41.85)"/><path class="cls-3" d="M60.19,67.92a5.5,5.5,0,0,0,5.47,3.34,5.39,5.39,0,0,0,5.41-3.39s-1.33-.76-5.41-.76S60.19,67.92,60.19,67.92Z" transform="translate(-30.13 -41.85)"/><path class="cls-4" d="M60.19,67.92a5.5,5.5,0,0,0,5.47,3.34,5.39,5.39,0,0,0,5.41-3.39s-1.33-.76-5.41-.76S60.19,67.92,60.19,67.92Z" transform="translate(-30.13 -41.85)"/></svg>