<svg id="Layer_1" data-name="Layer 1" xmlns="http://www.w3.org/2000/svg" viewBox="0 0 320 240"><defs><style>.cls-1{fill:#f47a20;}</style></defs><title>meh</title><path class="cls-1" d="M242.0078,87.4623c-11.44-20.0128-26.4061-40.4981-48.341-49.5168-17.0214-6.9984-35.7166-7.7809-54.0284-7.2325a4.1871,4.1871,0,0,0-3.276-.8706c-20.4442,2.24-41.2808,5.7245-54.925,22.7C68.3258,68.8557,62.9957,90.8741,59.85,111.14c-3.282,21.1444-5.0958,44.8768,1.8019,65.5291,6.77,20.2708,22.8214,33.11,42.2276,40.74,21.353,8.395,44.9814,9.3226,67.6014,7.5294,12.3591-.98,24.6655-2.6943,36.9315-4.471,10.58-1.5325,18.7928-4.8824,25.6754-13.31,6.9-8.449,13.7081-17.1537,18.0715-27.2241a85.1631,85.1631,0,0,0,6.7916-31.16C259.65,127.1552,252.641,106.0642,242.0078,87.4623Zm-3.6608,97.3044a139.6019,139.6019,0,0,1-8.7435,12.0712c-2.9565,3.7536-5.9377,8.0179-10.1994,10.39-3.89,2.1648-8.4962,2.8338-12.8406,3.4819-5.8743.8764-11.7667,1.6661-17.66,2.403-20.798,2.6008-42.2007,4.2263-62.9312.2135C107.86,209.82,87.68,201.9983,77.0669,185.98c-10.6431-16.064-10.64-37.0846-9.3864-55.5979,1.4409-21.2847,5.4263-44.8745,16.1326-63.6561,4.9874-8.7491,11.9227-15.9142,21.17-20.1153,6.5225-2.9634,13.613-4.4675,20.7441-5.486a5.2733,5.2733,0,0,0,1.4125.1159c17.8576-.8935,36.2661-1.7006,53.7162,2.9211,18.6122,4.93,31.1105,17.0209,42.1211,32.2916C245.0815,107.1108,260.3016,149.7764,238.347,184.7667Z"/><path class="cls-1" d="M123.443,95.9059a15.3717,15.3717,0,0,0-9.13-1.2355c-2.0582-2.1577-6.0521-2.7094-8.1335.5825-2.7742,4.3876-4.2859,14.3365,1.6514,17.0232,5.2675,2.3835,13.535,2.4206,17.75-2.015A9.0257,9.0257,0,0,0,123.443,95.9059Z"/><path class="cls-1" d="M199.6954,100.061a9.3275,9.3275,0,0,0-5.3585-5.0432c.3865-2.7368-1.1993-5.8089-4.7694-5.8173-8.1166-.0192-17.835,1.9731-19.652,11.374-1.8359,9.4979,7.5747,13.3716,15.3259,13.48,4.2172.0591,8.8149-.43,12.0162-3.4794A9.7421,9.7421,0,0,0,199.6954,100.061Z"/><path class="cls-1" d="M212.2835,170.4864a311.411,311.411,0,0,0-105.3608,2.62c-6.3077,1.2467-3.6376,10.8872,2.6584,9.6428a296.8826,296.8826,0,0,1,100.044-2.62C215.92,181.0427,218.6381,171.4086,212.2835,170.4864Z"/></svg>