<svg id="Layer_1" data-name="Layer 1" xmlns="http://www.w3.org/2000/svg" viewBox="0 0 320 240"><defs><style>.cls-1{fill:#59b0e2;}</style></defs><title>okay</title><path class="cls-1" d="M255.3523,94.8613c-.8192-10.7412-3.283-21.6122-9.1746-30.7777-5.7518-8.9481-14.1248-16.1157-22.6949-22.2683a100.9713,100.9713,0,0,0-42.4656-17.9486,4.7567,4.7567,0,0,0-3.991-2.2452c-20.0442-.8382-41.3442,1.1732-58.3913,12.7341C103.5621,44.5775,93.38,60.07,86.8218,76.82,73.1809,111.6587,73.04,157.03,96.7686,187.688c12.8032,16.5425,34.5118,18.26,53.7594,21.2626,11.4665,1.7889,23.0424,3.193,34.6655,3.1176,10.23-.0663,21.5043-.6825,30.4037-6.2919,7.8842-4.9694,13.3-12.8337,17.8774-20.77a167.3936,167.3936,0,0,0,12.9982-28.5393C253.2441,137.0271,256.924,115.4689,255.3523,94.8613Zm-14.0256,43.6608c-4.1982,17.38-11.1445,35.2635-21.7858,49.7735-5.7819,7.8839-13.1622,12.0739-22.8723,13.1781-9.9726,1.1341-20.173.6453-30.13-.3934-10.2991-1.0743-20.5091-2.9014-30.6962-4.7287-8.0956-1.4521-16.699-2.926-23.6886-7.54-7.5149-4.9605-12.4272-13.7077-16.1186-21.7073a92.109,92.109,0,0,1-7.1255-24.4351c-2.6078-16.84-1.0325-34.3926,3.4539-50.7734,4.7053-17.18,13.1059-34,26.95-45.6108C130.3,37.0712,143.8041,33.2105,157.69,31.9574a4.2537,4.2537,0,0,0,3.4221,1.0862c17.5955-1.4507,34.6727,3.4055,49.7341,12.423,14.85,8.8912,28.5923,20.9924,32.8035,38.3806C247.9065,101.4232,245.5193,121.1652,241.3267,138.5222Z"/><path class="cls-1" d="M143.5093,81.6343a7.7665,7.7665,0,0,0-5.4735-5.4128,13.9261,13.9261,0,0,0-6.3093.1147,3.8232,3.8232,0,0,0-1.0664.3912,5.8237,5.8237,0,0,0-1.9265.5876c-4.0021,2.0084-5.0929,7.1238-3.4543,11.0067a8.9865,8.9865,0,0,0,11.2021,4.7563C141.0786,91.5379,144.8419,86.6468,143.5093,81.6343Z"/><path class="cls-1" d="M206.557,85.8627a3.9427,3.9427,0,0,0-2.3375-2.0852,4.71,4.71,0,0,0-2.5507-1.5546c-9.8125-2.5058-14.05,12.327-7.8683,18.2755a8.42,8.42,0,0,0,12.0576-.7234C209.5,95.6315,208.5638,90.5086,206.557,85.8627Z"/><path class="cls-1" d="M198.53,153.6047c-4.3509,19.214-29.6132,17.0157-44.3457,15.0238-16.2648-2.1991-29.455-13.6956-29.7147-30.9352-.0969-6.4289-10.0971-6.4479-10,0a41.8765,41.8765,0,0,0,10.4011,26.9482c7.1658,8.2676,16.857,12.2877,27.5032,13.7449,20.04,2.7429,50.1133,2.985,55.7989-22.1232C209.5919,149.9965,199.9531,147.3207,198.53,153.6047Z"/></svg>